<mxfile host="app.diagrams.net" modified="2024-02-14T22:09:44.111Z" agent="Mozilla/5.0 (X11; Linux x86_64; rv:123.0) Gecko/20100101 Firefox/123.0" etag="rX_7eC8XLHBgOI1JdedM" version="23.1.2" type="device" pages="2">
  <diagram name="Page-1" id="oZl6qOF1715ecc37o1_x">
    <mxGraphModel dx="2049" dy="3294" grid="1" gridSize="10" guides="1" tooltips="1" connect="1" arrows="1" fold="0" page="1" pageScale="1" pageWidth="850" pageHeight="1100" math="0" shadow="0">
      <root>
        <mxCell id="0" />
        <mxCell id="1" parent="0" />
        <mxCell id="e2Lqz9-67kXM0NQT878s-1" value="" style="rounded=0;whiteSpace=wrap;html=1;movable=1;resizable=1;rotatable=1;deletable=1;editable=1;locked=0;connectable=1;" vertex="1" parent="1">
          <mxGeometry x="827.5" y="-410" width="1140" height="570" as="geometry" />
        </mxCell>
        <mxCell id="e2Lqz9-67kXM0NQT878s-2" style="edgeStyle=orthogonalEdgeStyle;rounded=0;orthogonalLoop=1;jettySize=auto;html=1;exitX=1;exitY=0.5;exitDx=0;exitDy=0;entryX=0;entryY=0.5;entryDx=0;entryDy=0;" edge="1" parent="1" source="e2Lqz9-67kXM0NQT878s-3" target="e2Lqz9-67kXM0NQT878s-8">
          <mxGeometry relative="1" as="geometry" />
        </mxCell>
        <mxCell id="e2Lqz9-67kXM0NQT878s-3" value="" style="shape=hexagon;perimeter=hexagonPerimeter2;whiteSpace=wrap;html=1;fixedSize=1;rounded=0;" vertex="1" parent="1">
          <mxGeometry x="1072.5" y="-158" width="120" height="64" as="geometry" />
        </mxCell>
        <mxCell id="e2Lqz9-67kXM0NQT878s-4" value="Début de l&#39;analyse des données" style="text;html=1;strokeColor=none;fillColor=none;align=center;verticalAlign=middle;whiteSpace=wrap;rounded=0;" vertex="1" parent="1">
          <mxGeometry x="1102.5" y="-141" width="60" height="30" as="geometry" />
        </mxCell>
        <mxCell id="e2Lqz9-67kXM0NQT878s-5" style="edgeStyle=orthogonalEdgeStyle;rounded=0;orthogonalLoop=1;jettySize=auto;html=1;exitX=0.5;exitY=1;exitDx=0;exitDy=0;entryX=0.5;entryY=0;entryDx=0;entryDy=0;" edge="1" parent="1" source="e2Lqz9-67kXM0NQT878s-8" target="e2Lqz9-67kXM0NQT878s-20">
          <mxGeometry relative="1" as="geometry" />
        </mxCell>
        <mxCell id="e2Lqz9-67kXM0NQT878s-6" style="edgeStyle=orthogonalEdgeStyle;rounded=0;orthogonalLoop=1;jettySize=auto;html=1;exitX=1;exitY=0.5;exitDx=0;exitDy=0;entryX=0;entryY=0.5;entryDx=0;entryDy=0;" edge="1" parent="1" source="e2Lqz9-67kXM0NQT878s-8" target="e2Lqz9-67kXM0NQT878s-19">
          <mxGeometry relative="1" as="geometry" />
        </mxCell>
        <mxCell id="e2Lqz9-67kXM0NQT878s-7" style="edgeStyle=orthogonalEdgeStyle;rounded=0;orthogonalLoop=1;jettySize=auto;html=1;exitX=1;exitY=1;exitDx=0;exitDy=0;entryX=0;entryY=0.5;entryDx=0;entryDy=0;" edge="1" parent="1" source="e2Lqz9-67kXM0NQT878s-8" target="e2Lqz9-67kXM0NQT878s-22">
          <mxGeometry relative="1" as="geometry" />
        </mxCell>
        <mxCell id="e2Lqz9-67kXM0NQT878s-8" value="" style="rounded=0;whiteSpace=wrap;html=1;" vertex="1" parent="1">
          <mxGeometry x="1293" y="-166.25" width="151" height="80" as="geometry" />
        </mxCell>
        <mxCell id="e2Lqz9-67kXM0NQT878s-9" value="évaluation de la structure du fichier et de la qualité des données" style="text;html=1;strokeColor=none;fillColor=none;align=center;verticalAlign=middle;whiteSpace=wrap;rounded=0;" vertex="1" parent="1">
          <mxGeometry x="1325.5" y="-140" width="86" height="30" as="geometry" />
        </mxCell>
        <mxCell id="e2Lqz9-67kXM0NQT878s-10" style="edgeStyle=orthogonalEdgeStyle;rounded=0;orthogonalLoop=1;jettySize=auto;html=1;exitX=0.5;exitY=1;exitDx=0;exitDy=0;entryX=0.5;entryY=0;entryDx=0;entryDy=0;" edge="1" parent="1" source="e2Lqz9-67kXM0NQT878s-11" target="e2Lqz9-67kXM0NQT878s-8">
          <mxGeometry relative="1" as="geometry" />
        </mxCell>
        <mxCell id="e2Lqz9-67kXM0NQT878s-11" value="" style="shape=process;whiteSpace=wrap;html=1;backgroundOutline=1;rounded=0;" vertex="1" parent="1">
          <mxGeometry x="1165.5" y="-256" width="120" height="60" as="geometry" />
        </mxCell>
        <mxCell id="e2Lqz9-67kXM0NQT878s-12" value="Fichier SQL" style="text;html=1;strokeColor=none;fillColor=none;align=center;verticalAlign=middle;whiteSpace=wrap;rounded=0;" vertex="1" parent="1">
          <mxGeometry x="1182.5" y="-241" width="86" height="30" as="geometry" />
        </mxCell>
        <mxCell id="e2Lqz9-67kXM0NQT878s-13" style="edgeStyle=orthogonalEdgeStyle;rounded=0;orthogonalLoop=1;jettySize=auto;html=1;exitX=0.5;exitY=1;exitDx=0;exitDy=0;entryX=0.5;entryY=0;entryDx=0;entryDy=0;" edge="1" parent="1" source="e2Lqz9-67kXM0NQT878s-14" target="e2Lqz9-67kXM0NQT878s-8">
          <mxGeometry relative="1" as="geometry" />
        </mxCell>
        <mxCell id="e2Lqz9-67kXM0NQT878s-14" value="" style="shape=process;whiteSpace=wrap;html=1;backgroundOutline=1;rounded=0;" vertex="1" parent="1">
          <mxGeometry x="1308.5" y="-256" width="120" height="60" as="geometry" />
        </mxCell>
        <mxCell id="e2Lqz9-67kXM0NQT878s-15" value="Fichier PDF" style="text;html=1;strokeColor=none;fillColor=none;align=center;verticalAlign=middle;whiteSpace=wrap;rounded=0;" vertex="1" parent="1">
          <mxGeometry x="1325.5" y="-241" width="86" height="30" as="geometry" />
        </mxCell>
        <mxCell id="e2Lqz9-67kXM0NQT878s-16" style="edgeStyle=orthogonalEdgeStyle;rounded=0;orthogonalLoop=1;jettySize=auto;html=1;exitX=0.5;exitY=1;exitDx=0;exitDy=0;entryX=0.5;entryY=0;entryDx=0;entryDy=0;" edge="1" parent="1" source="e2Lqz9-67kXM0NQT878s-17" target="e2Lqz9-67kXM0NQT878s-8">
          <mxGeometry relative="1" as="geometry" />
        </mxCell>
        <mxCell id="e2Lqz9-67kXM0NQT878s-17" value="" style="shape=process;whiteSpace=wrap;html=1;backgroundOutline=1;rounded=0;" vertex="1" parent="1">
          <mxGeometry x="1447.5" y="-256" width="120" height="60" as="geometry" />
        </mxCell>
        <mxCell id="e2Lqz9-67kXM0NQT878s-18" value="Wikidata" style="text;html=1;strokeColor=none;fillColor=none;align=center;verticalAlign=middle;whiteSpace=wrap;rounded=0;" vertex="1" parent="1">
          <mxGeometry x="1464.5" y="-241" width="86" height="30" as="geometry" />
        </mxCell>
        <mxCell id="e2Lqz9-67kXM0NQT878s-19" value="Fin de l&#39;évaluation" style="shape=hexagon;perimeter=hexagonPerimeter2;whiteSpace=wrap;html=1;fixedSize=1;rounded=0;" vertex="1" parent="1">
          <mxGeometry x="1520.5" y="-154" width="126" height="55.5" as="geometry" />
        </mxCell>
        <mxCell id="e2Lqz9-67kXM0NQT878s-20" value="" style="shape=hexagon;perimeter=hexagonPerimeter2;whiteSpace=wrap;html=1;fixedSize=1;rounded=0;" vertex="1" parent="1">
          <mxGeometry x="1308" y="-36" width="120" height="50" as="geometry" />
        </mxCell>
        <mxCell id="e2Lqz9-67kXM0NQT878s-21" value="Données non validées" style="text;html=1;strokeColor=none;fillColor=none;align=center;verticalAlign=middle;whiteSpace=wrap;rounded=0;" vertex="1" parent="1">
          <mxGeometry x="1338" y="-26" width="60" height="30" as="geometry" />
        </mxCell>
        <mxCell id="e2Lqz9-67kXM0NQT878s-22" value="" style="shape=process;whiteSpace=wrap;html=1;backgroundOutline=1;rounded=0;" vertex="1" parent="1">
          <mxGeometry x="1513.5" y="-61" width="120" height="60" as="geometry" />
        </mxCell>
        <mxCell id="e2Lqz9-67kXM0NQT878s-23" value="Données valides (restantes)" style="text;html=1;strokeColor=none;fillColor=none;align=center;verticalAlign=middle;whiteSpace=wrap;rounded=0;" vertex="1" parent="1">
          <mxGeometry x="1532.5" y="-44" width="86" height="30" as="geometry" />
        </mxCell>
        <mxCell id="e2Lqz9-67kXM0NQT878s-24" value="&lt;b&gt;&lt;font style=&quot;font-size: 18px;&quot;&gt;Détails de l&#39;action d&#39;analyse de données&lt;br&gt;&lt;/font&gt;&lt;/b&gt;" style="text;html=1;strokeColor=none;fillColor=none;align=center;verticalAlign=middle;whiteSpace=wrap;rounded=0;" vertex="1" parent="1">
          <mxGeometry x="873" y="-376" width="347" height="120" as="geometry" />
        </mxCell>
        <mxCell id="e2Lqz9-67kXM0NQT878s-25" style="edgeStyle=orthogonalEdgeStyle;rounded=0;orthogonalLoop=1;jettySize=auto;html=1;exitX=1;exitY=0.5;exitDx=0;exitDy=0;entryX=0;entryY=0.5;entryDx=0;entryDy=0;" edge="1" parent="1" source="e2Lqz9-67kXM0NQT878s-26" target="e2Lqz9-67kXM0NQT878s-31">
          <mxGeometry relative="1" as="geometry" />
        </mxCell>
        <mxCell id="e2Lqz9-67kXM0NQT878s-26" value="" style="shape=hexagon;perimeter=hexagonPerimeter2;whiteSpace=wrap;html=1;fixedSize=1;rounded=0;" vertex="1" parent="1">
          <mxGeometry x="467.5" y="-800" width="130" height="50" as="geometry" />
        </mxCell>
        <mxCell id="e2Lqz9-67kXM0NQT878s-27" value="Récéption des données" style="text;html=1;strokeColor=none;fillColor=none;align=center;verticalAlign=middle;whiteSpace=wrap;rounded=0;" vertex="1" parent="1">
          <mxGeometry x="502.5" y="-790" width="60" height="30" as="geometry" />
        </mxCell>
        <mxCell id="e2Lqz9-67kXM0NQT878s-28" style="edgeStyle=orthogonalEdgeStyle;rounded=0;orthogonalLoop=1;jettySize=auto;html=1;exitX=0.5;exitY=1;exitDx=0;exitDy=0;entryX=0.5;entryY=0;entryDx=0;entryDy=0;" edge="1" parent="1" source="e2Lqz9-67kXM0NQT878s-31" target="e2Lqz9-67kXM0NQT878s-33">
          <mxGeometry relative="1" as="geometry" />
        </mxCell>
        <mxCell id="e2Lqz9-67kXM0NQT878s-29" style="edgeStyle=orthogonalEdgeStyle;rounded=0;orthogonalLoop=1;jettySize=auto;html=1;exitX=1;exitY=0.5;exitDx=0;exitDy=0;entryX=0;entryY=0.5;entryDx=0;entryDy=0;" edge="1" parent="1" source="e2Lqz9-67kXM0NQT878s-31" target="e2Lqz9-67kXM0NQT878s-43">
          <mxGeometry relative="1" as="geometry" />
        </mxCell>
        <mxCell id="e2Lqz9-67kXM0NQT878s-30" style="edgeStyle=orthogonalEdgeStyle;rounded=0;orthogonalLoop=1;jettySize=auto;html=1;exitX=1;exitY=1;exitDx=0;exitDy=0;entryX=0.5;entryY=0;entryDx=0;entryDy=0;" edge="1" parent="1" source="e2Lqz9-67kXM0NQT878s-31" target="e2Lqz9-67kXM0NQT878s-80">
          <mxGeometry relative="1" as="geometry" />
        </mxCell>
        <mxCell id="e2Lqz9-67kXM0NQT878s-31" value="" style="rounded=0;whiteSpace=wrap;html=1;" vertex="1" parent="1">
          <mxGeometry x="707.5" y="-805" width="120" height="60" as="geometry" />
        </mxCell>
        <mxCell id="e2Lqz9-67kXM0NQT878s-32" value="Analyse des données reçues" style="text;html=1;strokeColor=none;fillColor=none;align=center;verticalAlign=middle;whiteSpace=wrap;rounded=0;" vertex="1" parent="1">
          <mxGeometry x="737.5" y="-790" width="60" height="30" as="geometry" />
        </mxCell>
        <mxCell id="e2Lqz9-67kXM0NQT878s-33" value="" style="shape=hexagon;perimeter=hexagonPerimeter2;whiteSpace=wrap;html=1;fixedSize=1;rounded=0;" vertex="1" parent="1">
          <mxGeometry x="707.5" y="-695" width="120" height="50" as="geometry" />
        </mxCell>
        <mxCell id="e2Lqz9-67kXM0NQT878s-34" value="Données non validées" style="text;html=1;strokeColor=none;fillColor=none;align=center;verticalAlign=middle;whiteSpace=wrap;rounded=0;" vertex="1" parent="1">
          <mxGeometry x="737.5" y="-685" width="60" height="30" as="geometry" />
        </mxCell>
        <mxCell id="e2Lqz9-67kXM0NQT878s-35" value="" style="verticalLabelPosition=bottom;verticalAlign=top;html=1;shape=mxgraph.basic.no_symbol;rounded=0;" vertex="1" parent="1">
          <mxGeometry x="747.5" y="-615" width="40" height="40" as="geometry" />
        </mxCell>
        <mxCell id="e2Lqz9-67kXM0NQT878s-36" style="edgeStyle=orthogonalEdgeStyle;rounded=0;orthogonalLoop=1;jettySize=auto;html=1;exitX=0.5;exitY=1;exitDx=0;exitDy=0;entryX=0.5;entryY=0;entryDx=0;entryDy=0;entryPerimeter=0;" edge="1" parent="1" source="e2Lqz9-67kXM0NQT878s-33" target="e2Lqz9-67kXM0NQT878s-35">
          <mxGeometry relative="1" as="geometry" />
        </mxCell>
        <mxCell id="e2Lqz9-67kXM0NQT878s-37" style="edgeStyle=orthogonalEdgeStyle;rounded=0;orthogonalLoop=1;jettySize=auto;html=1;exitX=1;exitY=0.5;exitDx=0;exitDy=0;entryX=0;entryY=0.5;entryDx=0;entryDy=0;" edge="1" parent="1" source="e2Lqz9-67kXM0NQT878s-40" target="e2Lqz9-67kXM0NQT878s-59">
          <mxGeometry relative="1" as="geometry" />
        </mxCell>
        <mxCell id="e2Lqz9-67kXM0NQT878s-38" style="edgeStyle=orthogonalEdgeStyle;rounded=0;orthogonalLoop=1;jettySize=auto;html=1;exitX=0.5;exitY=1;exitDx=0;exitDy=0;entryX=0.5;entryY=0;entryDx=0;entryDy=0;" edge="1" parent="1" source="e2Lqz9-67kXM0NQT878s-40" target="e2Lqz9-67kXM0NQT878s-60">
          <mxGeometry relative="1" as="geometry" />
        </mxCell>
        <mxCell id="e2Lqz9-67kXM0NQT878s-39" style="edgeStyle=orthogonalEdgeStyle;rounded=0;orthogonalLoop=1;jettySize=auto;html=1;exitX=1;exitY=1;exitDx=0;exitDy=0;entryX=0.5;entryY=0;entryDx=0;entryDy=0;" edge="1" parent="1" source="e2Lqz9-67kXM0NQT878s-40" target="e2Lqz9-67kXM0NQT878s-78">
          <mxGeometry relative="1" as="geometry" />
        </mxCell>
        <mxCell id="e2Lqz9-67kXM0NQT878s-40" value="" style="rounded=0;whiteSpace=wrap;html=1;" vertex="1" parent="1">
          <mxGeometry x="1072.5" y="-828" width="145" height="105" as="geometry" />
        </mxCell>
        <mxCell id="e2Lqz9-67kXM0NQT878s-41" value="Extraction et vérification des des données reçues à l&#39;aide d&#39;une requête SPARQL" style="text;html=1;strokeColor=none;fillColor=none;align=center;verticalAlign=middle;whiteSpace=wrap;rounded=0;" vertex="1" parent="1">
          <mxGeometry x="1102.5" y="-794" width="86" height="30" as="geometry" />
        </mxCell>
        <mxCell id="e2Lqz9-67kXM0NQT878s-42" style="edgeStyle=orthogonalEdgeStyle;rounded=0;orthogonalLoop=1;jettySize=auto;html=1;exitX=1;exitY=0.5;exitDx=0;exitDy=0;entryX=0;entryY=0.5;entryDx=0;entryDy=0;" edge="1" parent="1" source="e2Lqz9-67kXM0NQT878s-43" target="e2Lqz9-67kXM0NQT878s-40">
          <mxGeometry relative="1" as="geometry" />
        </mxCell>
        <mxCell id="e2Lqz9-67kXM0NQT878s-43" value="" style="shape=hexagon;perimeter=hexagonPerimeter2;whiteSpace=wrap;html=1;fixedSize=1;rounded=0;" vertex="1" parent="1">
          <mxGeometry x="887.5" y="-800" width="130" height="50" as="geometry" />
        </mxCell>
        <mxCell id="e2Lqz9-67kXM0NQT878s-44" value="Fin analyse" style="text;html=1;strokeColor=none;fillColor=none;align=center;verticalAlign=middle;whiteSpace=wrap;rounded=0;" vertex="1" parent="1">
          <mxGeometry x="922.5" y="-790" width="60" height="30" as="geometry" />
        </mxCell>
        <mxCell id="e2Lqz9-67kXM0NQT878s-45" style="edgeStyle=orthogonalEdgeStyle;rounded=0;orthogonalLoop=1;jettySize=auto;html=1;exitX=0.5;exitY=1;exitDx=0;exitDy=0;entryX=0.5;entryY=0;entryDx=0;entryDy=0;" edge="1" parent="1" source="e2Lqz9-67kXM0NQT878s-46" target="e2Lqz9-67kXM0NQT878s-40">
          <mxGeometry relative="1" as="geometry" />
        </mxCell>
        <mxCell id="e2Lqz9-67kXM0NQT878s-46" value="" style="shape=process;whiteSpace=wrap;html=1;backgroundOutline=1;rounded=0;" vertex="1" parent="1">
          <mxGeometry x="1085.5" y="-1044" width="120" height="60" as="geometry" />
        </mxCell>
        <mxCell id="e2Lqz9-67kXM0NQT878s-47" value="BDD au format RDF" style="text;html=1;strokeColor=none;fillColor=none;align=center;verticalAlign=middle;whiteSpace=wrap;rounded=0;" vertex="1" parent="1">
          <mxGeometry x="1102.5" y="-1029" width="86" height="30" as="geometry" />
        </mxCell>
        <mxCell id="e2Lqz9-67kXM0NQT878s-48" style="edgeStyle=orthogonalEdgeStyle;rounded=0;orthogonalLoop=1;jettySize=auto;html=1;exitX=1;exitY=0.5;exitDx=0;exitDy=0;entryX=0;entryY=0.5;entryDx=0;entryDy=0;" edge="1" parent="1" source="e2Lqz9-67kXM0NQT878s-49" target="e2Lqz9-67kXM0NQT878s-71">
          <mxGeometry relative="1" as="geometry" />
        </mxCell>
        <mxCell id="e2Lqz9-67kXM0NQT878s-49" value="" style="rounded=0;whiteSpace=wrap;html=1;" vertex="1" parent="1">
          <mxGeometry x="1566.5" y="-806" width="146" height="60" as="geometry" />
        </mxCell>
        <mxCell id="e2Lqz9-67kXM0NQT878s-50" value="Transformation des données en format RDF" style="text;html=1;strokeColor=none;fillColor=none;align=center;verticalAlign=middle;whiteSpace=wrap;rounded=0;" vertex="1" parent="1">
          <mxGeometry x="1596.5" y="-793" width="86" height="30" as="geometry" />
        </mxCell>
        <mxCell id="e2Lqz9-67kXM0NQT878s-51" value="" style="shape=process;whiteSpace=wrap;html=1;backgroundOutline=1;rounded=0;" vertex="1" parent="1">
          <mxGeometry x="2097.5" y="-957" width="120" height="60" as="geometry" />
        </mxCell>
        <mxCell id="e2Lqz9-67kXM0NQT878s-52" value="BDD au format RDF" style="text;html=1;strokeColor=none;fillColor=none;align=center;verticalAlign=middle;whiteSpace=wrap;rounded=0;" vertex="1" parent="1">
          <mxGeometry x="2114.5" y="-942" width="86" height="30" as="geometry" />
        </mxCell>
        <mxCell id="e2Lqz9-67kXM0NQT878s-53" style="edgeStyle=orthogonalEdgeStyle;rounded=0;orthogonalLoop=1;jettySize=auto;html=1;exitX=0.5;exitY=0;exitDx=0;exitDy=0;entryX=0.5;entryY=1;entryDx=0;entryDy=0;" edge="1" parent="1" source="e2Lqz9-67kXM0NQT878s-55" target="e2Lqz9-67kXM0NQT878s-51">
          <mxGeometry relative="1" as="geometry" />
        </mxCell>
        <mxCell id="e2Lqz9-67kXM0NQT878s-54" style="edgeStyle=orthogonalEdgeStyle;rounded=0;orthogonalLoop=1;jettySize=auto;html=1;exitX=0.5;exitY=1;exitDx=0;exitDy=0;entryX=0.5;entryY=0;entryDx=0;entryDy=0;" edge="1" parent="1" source="e2Lqz9-67kXM0NQT878s-55" target="e2Lqz9-67kXM0NQT878s-57">
          <mxGeometry relative="1" as="geometry" />
        </mxCell>
        <mxCell id="e2Lqz9-67kXM0NQT878s-55" value="" style="rounded=0;whiteSpace=wrap;html=1;" vertex="1" parent="1">
          <mxGeometry x="2077.5" y="-816" width="160" height="80" as="geometry" />
        </mxCell>
        <mxCell id="e2Lqz9-67kXM0NQT878s-56" value="Insertion des nouvelles données dans la BDD" style="text;html=1;strokeColor=none;fillColor=none;align=center;verticalAlign=middle;whiteSpace=wrap;rounded=0;" vertex="1" parent="1">
          <mxGeometry x="2110.5" y="-787" width="86" height="30" as="geometry" />
        </mxCell>
        <mxCell id="e2Lqz9-67kXM0NQT878s-57" value="Fin du processus de traitement et d&#39;insertion des données" style="shape=hexagon;perimeter=hexagonPerimeter2;whiteSpace=wrap;html=1;fixedSize=1;rounded=0;" vertex="1" parent="1">
          <mxGeometry x="2083.5" y="-652" width="146" height="70" as="geometry" />
        </mxCell>
        <mxCell id="e2Lqz9-67kXM0NQT878s-58" style="edgeStyle=orthogonalEdgeStyle;rounded=0;orthogonalLoop=1;jettySize=auto;html=1;exitX=1;exitY=0.5;exitDx=0;exitDy=0;entryX=0;entryY=0.5;entryDx=0;entryDy=0;" edge="1" parent="1" source="e2Lqz9-67kXM0NQT878s-59" target="e2Lqz9-67kXM0NQT878s-49">
          <mxGeometry relative="1" as="geometry" />
        </mxCell>
        <mxCell id="e2Lqz9-67kXM0NQT878s-59" value="Fin extraction" style="shape=hexagon;perimeter=hexagonPerimeter2;whiteSpace=wrap;html=1;fixedSize=1;rounded=0;" vertex="1" parent="1">
          <mxGeometry x="1317.5" y="-804.75" width="160" height="58.5" as="geometry" />
        </mxCell>
        <mxCell id="e2Lqz9-67kXM0NQT878s-60" value="Fichier contenant des données non valides (fichier BAD)" style="shape=hexagon;perimeter=hexagonPerimeter2;whiteSpace=wrap;html=1;fixedSize=1;rounded=0;" vertex="1" parent="1">
          <mxGeometry x="1065.5" y="-673.5" width="160" height="58.5" as="geometry" />
        </mxCell>
        <mxCell id="e2Lqz9-67kXM0NQT878s-61" style="edgeStyle=orthogonalEdgeStyle;rounded=0;orthogonalLoop=1;jettySize=auto;html=1;exitX=0.5;exitY=1;exitDx=0;exitDy=0;entryX=0.5;entryY=0;entryDx=0;entryDy=0;" edge="1" parent="1" source="e2Lqz9-67kXM0NQT878s-62" target="e2Lqz9-67kXM0NQT878s-31">
          <mxGeometry relative="1" as="geometry" />
        </mxCell>
        <mxCell id="e2Lqz9-67kXM0NQT878s-62" value="" style="shape=process;whiteSpace=wrap;html=1;backgroundOutline=1;rounded=0;" vertex="1" parent="1">
          <mxGeometry x="565.5" y="-1045" width="120" height="60" as="geometry" />
        </mxCell>
        <mxCell id="e2Lqz9-67kXM0NQT878s-63" value="Fichier SQL" style="text;html=1;strokeColor=none;fillColor=none;align=center;verticalAlign=middle;whiteSpace=wrap;rounded=0;" vertex="1" parent="1">
          <mxGeometry x="582.5" y="-1030" width="86" height="30" as="geometry" />
        </mxCell>
        <mxCell id="e2Lqz9-67kXM0NQT878s-64" style="edgeStyle=orthogonalEdgeStyle;rounded=0;orthogonalLoop=1;jettySize=auto;html=1;exitX=0.5;exitY=1;exitDx=0;exitDy=0;entryX=0.5;entryY=0;entryDx=0;entryDy=0;" edge="1" parent="1" source="e2Lqz9-67kXM0NQT878s-65" target="e2Lqz9-67kXM0NQT878s-31">
          <mxGeometry relative="1" as="geometry" />
        </mxCell>
        <mxCell id="e2Lqz9-67kXM0NQT878s-65" value="" style="shape=process;whiteSpace=wrap;html=1;backgroundOutline=1;rounded=0;" vertex="1" parent="1">
          <mxGeometry x="708.5" y="-1045" width="120" height="60" as="geometry" />
        </mxCell>
        <mxCell id="e2Lqz9-67kXM0NQT878s-66" value="Fichier PDF" style="text;html=1;strokeColor=none;fillColor=none;align=center;verticalAlign=middle;whiteSpace=wrap;rounded=0;" vertex="1" parent="1">
          <mxGeometry x="725.5" y="-1030" width="86" height="30" as="geometry" />
        </mxCell>
        <mxCell id="e2Lqz9-67kXM0NQT878s-67" style="edgeStyle=orthogonalEdgeStyle;rounded=0;orthogonalLoop=1;jettySize=auto;html=1;exitX=0.5;exitY=1;exitDx=0;exitDy=0;entryX=0.5;entryY=0;entryDx=0;entryDy=0;" edge="1" parent="1" source="e2Lqz9-67kXM0NQT878s-68" target="e2Lqz9-67kXM0NQT878s-31">
          <mxGeometry relative="1" as="geometry" />
        </mxCell>
        <mxCell id="e2Lqz9-67kXM0NQT878s-68" value="" style="shape=process;whiteSpace=wrap;html=1;backgroundOutline=1;rounded=0;" vertex="1" parent="1">
          <mxGeometry x="847.5" y="-1045" width="120" height="60" as="geometry" />
        </mxCell>
        <mxCell id="e2Lqz9-67kXM0NQT878s-69" value="Wikidata" style="text;html=1;strokeColor=none;fillColor=none;align=center;verticalAlign=middle;whiteSpace=wrap;rounded=0;" vertex="1" parent="1">
          <mxGeometry x="864.5" y="-1030" width="86" height="30" as="geometry" />
        </mxCell>
        <mxCell id="e2Lqz9-67kXM0NQT878s-70" style="edgeStyle=orthogonalEdgeStyle;rounded=0;orthogonalLoop=1;jettySize=auto;html=1;exitX=1;exitY=0.5;exitDx=0;exitDy=0;entryX=0;entryY=0.5;entryDx=0;entryDy=0;" edge="1" parent="1" source="e2Lqz9-67kXM0NQT878s-71" target="e2Lqz9-67kXM0NQT878s-55">
          <mxGeometry relative="1" as="geometry" />
        </mxCell>
        <mxCell id="e2Lqz9-67kXM0NQT878s-71" value="Transformation des données au format RDF réussie" style="shape=hexagon;perimeter=hexagonPerimeter2;whiteSpace=wrap;html=1;fixedSize=1;rounded=0;" vertex="1" parent="1">
          <mxGeometry x="1797.5" y="-805.25" width="200" height="59.25" as="geometry" />
        </mxCell>
        <mxCell id="e2Lqz9-67kXM0NQT878s-72" value="Transformation des données non réussies" style="shape=hexagon;perimeter=hexagonPerimeter2;whiteSpace=wrap;html=1;fixedSize=1;rounded=0;" vertex="1" parent="1">
          <mxGeometry x="1525.5" y="-685" width="242" height="48.5" as="geometry" />
        </mxCell>
        <mxCell id="e2Lqz9-67kXM0NQT878s-73" style="edgeStyle=orthogonalEdgeStyle;rounded=0;orthogonalLoop=1;jettySize=auto;html=1;exitX=0.5;exitY=1;exitDx=0;exitDy=0;entryX=0.473;entryY=0.039;entryDx=0;entryDy=0;entryPerimeter=0;" edge="1" parent="1" source="e2Lqz9-67kXM0NQT878s-49" target="e2Lqz9-67kXM0NQT878s-72">
          <mxGeometry relative="1" as="geometry" />
        </mxCell>
        <mxCell id="e2Lqz9-67kXM0NQT878s-74" value="&lt;b&gt;&lt;font style=&quot;font-size: 18px;&quot;&gt;Processus de traitement et d&#39;insertion de données&lt;br&gt;&lt;/font&gt;&lt;/b&gt;" style="text;html=1;strokeColor=none;fillColor=none;align=center;verticalAlign=middle;whiteSpace=wrap;rounded=0;" vertex="1" parent="1">
          <mxGeometry x="280" y="-1220" width="347" height="120" as="geometry" />
        </mxCell>
        <mxCell id="e2Lqz9-67kXM0NQT878s-75" value="" style="shape=process;whiteSpace=wrap;html=1;backgroundOutline=1;rounded=0;" vertex="1" parent="1">
          <mxGeometry x="1579.5" y="-957" width="120" height="60" as="geometry" />
        </mxCell>
        <mxCell id="e2Lqz9-67kXM0NQT878s-76" value="Fichier non-BAD" style="text;html=1;strokeColor=none;fillColor=none;align=center;verticalAlign=middle;whiteSpace=wrap;rounded=0;" vertex="1" parent="1">
          <mxGeometry x="1596.5" y="-942" width="86" height="30" as="geometry" />
        </mxCell>
        <mxCell id="e2Lqz9-67kXM0NQT878s-77" value="" style="endArrow=classic;html=1;rounded=0;entryX=0.5;entryY=0;entryDx=0;entryDy=0;exitX=0.5;exitY=1;exitDx=0;exitDy=0;" edge="1" parent="1" source="e2Lqz9-67kXM0NQT878s-75">
          <mxGeometry width="50" height="50" relative="1" as="geometry">
            <mxPoint x="1459" y="-840" as="sourcePoint" />
            <mxPoint x="1639.5" y="-805.25" as="targetPoint" />
          </mxGeometry>
        </mxCell>
        <mxCell id="e2Lqz9-67kXM0NQT878s-78" value="" style="shape=process;whiteSpace=wrap;html=1;backgroundOutline=1;rounded=0;" vertex="1" parent="1">
          <mxGeometry x="1309.5" y="-682" width="140" height="75" as="geometry" />
        </mxCell>
        <mxCell id="e2Lqz9-67kXM0NQT878s-79" value="Fichier contenant des données valides (non BAD)" style="text;html=1;strokeColor=none;fillColor=none;align=center;verticalAlign=middle;whiteSpace=wrap;rounded=0;" vertex="1" parent="1">
          <mxGeometry x="1336" y="-656.5" width="86" height="30" as="geometry" />
        </mxCell>
        <mxCell id="e2Lqz9-67kXM0NQT878s-80" value="" style="shape=process;whiteSpace=wrap;html=1;backgroundOutline=1;rounded=0;" vertex="1" parent="1">
          <mxGeometry x="873.5" y="-640" width="153.5" height="90" as="geometry" />
        </mxCell>
        <mxCell id="e2Lqz9-67kXM0NQT878s-81" value="Fichier contenant des données valides (post fitrage des données)" style="text;html=1;strokeColor=none;fillColor=none;align=center;verticalAlign=middle;whiteSpace=wrap;rounded=0;" vertex="1" parent="1">
          <mxGeometry x="903.5" y="-607" width="86.5" height="25" as="geometry" />
        </mxCell>
        <mxCell id="e2Lqz9-67kXM0NQT878s-82" style="edgeStyle=orthogonalEdgeStyle;rounded=0;orthogonalLoop=1;jettySize=auto;html=1;exitX=0.5;exitY=1;exitDx=0;exitDy=0;entryX=0.5;entryY=0;entryDx=0;entryDy=0;" edge="1" parent="1" source="e2Lqz9-67kXM0NQT878s-83" target="e2Lqz9-67kXM0NQT878s-40">
          <mxGeometry relative="1" as="geometry" />
        </mxCell>
        <mxCell id="e2Lqz9-67kXM0NQT878s-83" value="" style="shape=process;whiteSpace=wrap;html=1;backgroundOutline=1;rounded=0;" vertex="1" parent="1">
          <mxGeometry x="1225.5" y="-1060" width="121.5" height="75" as="geometry" />
        </mxCell>
        <mxCell id="e2Lqz9-67kXM0NQT878s-84" value="Données valides (restantes)" style="text;html=1;strokeColor=none;fillColor=none;align=center;verticalAlign=middle;whiteSpace=wrap;rounded=0;" vertex="1" parent="1">
          <mxGeometry x="1242.5" y="-1036" width="86" height="30" as="geometry" />
        </mxCell>
        <mxCell id="e2Lqz9-67kXM0NQT878s-85" value="Détail du processus d&#39;extraction et vérification des données" style="swimlane;childLayout=stackLayout;resizeParent=1;resizeParentMax=0;horizontal=1;startSize=20;horizontalStack=0;html=1;rounded=0;shadow=0;strokeColor=#005700;align=center;verticalAlign=middle;fontFamily=Helvetica;fontSize=12;fontColor=#ffffff;fillColor=#008a00;" vertex="1" parent="1">
          <mxGeometry x="1710" y="-1890" width="632.5" height="480" as="geometry" />
        </mxCell>
        <mxCell id="e2Lqz9-67kXM0NQT878s-86" value="Fonction 1" style="swimlane;startSize=20;horizontal=0;html=1;rounded=0;shadow=0;strokeColor=#005700;align=center;verticalAlign=middle;fontFamily=Helvetica;fontSize=12;fontColor=#ffffff;fillColor=#008a00;" vertex="1" parent="e2Lqz9-67kXM0NQT878s-85">
          <mxGeometry y="20" width="632.5" height="120" as="geometry" />
        </mxCell>
        <mxCell id="e2Lqz9-67kXM0NQT878s-87" value="&lt;strong&gt;Fonction 1 : Lecture des données à partir du fichier source&lt;/strong&gt;" style="text;html=1;align=center;verticalAlign=middle;resizable=0;points=[];autosize=1;strokeColor=none;fillColor=none;fontFamily=Helvetica;fontSize=12;fontColor=default;rounded=0;" vertex="1" parent="e2Lqz9-67kXM0NQT878s-86">
          <mxGeometry x="35" y="10" width="360" height="30" as="geometry" />
        </mxCell>
        <mxCell id="e2Lqz9-67kXM0NQT878s-88" value="&lt;div align=&quot;left&quot;&gt;&lt;br&gt;&lt;/div&gt;" style="text;html=1;align=center;verticalAlign=middle;resizable=0;points=[];autosize=1;strokeColor=none;fillColor=none;fontFamily=Helvetica;fontSize=12;fontColor=default;rounded=0;" vertex="1" parent="e2Lqz9-67kXM0NQT878s-86">
          <mxGeometry x="205" y="40" width="20" height="30" as="geometry" />
        </mxCell>
        <mxCell id="e2Lqz9-67kXM0NQT878s-89" value="&lt;div align=&quot;left&quot;&gt;Cette fonction implique la lecture des données à partir du fichier &lt;br&gt;source (Données valides dans le schéma ) contenant les informations valides à extraire. &lt;br&gt;&lt;/div&gt;" style="text;html=1;align=left;verticalAlign=middle;resizable=0;points=[];autosize=1;strokeColor=none;fillColor=none;fontFamily=Helvetica;fontSize=12;fontColor=default;rounded=0;" vertex="1" parent="e2Lqz9-67kXM0NQT878s-86">
          <mxGeometry x="42.5" y="50" width="490" height="40" as="geometry" />
        </mxCell>
        <mxCell id="e2Lqz9-67kXM0NQT878s-90" value="Fonction 2" style="swimlane;startSize=20;horizontal=0;html=1;rounded=0;shadow=0;strokeColor=#005700;align=center;verticalAlign=middle;fontFamily=Helvetica;fontSize=12;fontColor=#ffffff;fillColor=#008a00;" vertex="1" parent="e2Lqz9-67kXM0NQT878s-85">
          <mxGeometry y="140" width="632.5" height="170" as="geometry" />
        </mxCell>
        <mxCell id="e2Lqz9-67kXM0NQT878s-91" value="&lt;strong&gt;Fonction 2 : &lt;/strong&gt;&lt;strong&gt;Comparaison des données avec la base de données RDF&lt;/strong&gt;" style="text;html=1;align=center;verticalAlign=middle;resizable=0;points=[];autosize=1;strokeColor=none;fillColor=none;fontFamily=Helvetica;fontSize=12;fontColor=default;rounded=0;" vertex="1" parent="e2Lqz9-67kXM0NQT878s-90">
          <mxGeometry x="37" y="20" width="420" height="30" as="geometry" />
        </mxCell>
        <mxCell id="e2Lqz9-67kXM0NQT878s-92" value="&lt;div align=&quot;left&quot;&gt;Cette fonction implique la lecture des données à partir du fichier &lt;br&gt;source (Données valides dans le schéma ) contenant les informations valides à extraire. &lt;br&gt;&lt;/div&gt;" style="text;html=1;align=left;verticalAlign=middle;resizable=0;points=[];autosize=1;strokeColor=none;fillColor=none;fontFamily=Helvetica;fontSize=12;fontColor=default;rounded=0;" vertex="1" parent="e2Lqz9-67kXM0NQT878s-90">
          <mxGeometry x="45" y="70" width="490" height="40" as="geometry" />
        </mxCell>
        <mxCell id="e2Lqz9-67kXM0NQT878s-93" value="Fonction 3" style="swimlane;startSize=20;horizontal=0;html=1;rounded=0;shadow=0;strokeColor=#005700;align=center;verticalAlign=middle;fontFamily=Helvetica;fontSize=12;fontColor=#ffffff;fillColor=#008a00;" vertex="1" parent="e2Lqz9-67kXM0NQT878s-85">
          <mxGeometry y="310" width="632.5" height="170" as="geometry" />
        </mxCell>
        <mxCell id="e2Lqz9-67kXM0NQT878s-94" value="&lt;strong&gt;Fonction 3 : &lt;/strong&gt;&lt;strong&gt;Séparation des données&lt;/strong&gt;" style="text;html=1;align=center;verticalAlign=middle;resizable=0;points=[];autosize=1;strokeColor=none;fillColor=none;fontFamily=Helvetica;fontSize=12;fontColor=default;rounded=0;" vertex="1" parent="e2Lqz9-67kXM0NQT878s-93">
          <mxGeometry x="45" y="10" width="230" height="30" as="geometry" />
        </mxCell>
        <mxCell id="e2Lqz9-67kXM0NQT878s-95" value="Cette fonction sépare les données en fonction du résultat de la &lt;br/&gt;comparaison. &lt;br&gt;Les données déjà présentes dans la base RDF seront &lt;br/&gt;considérées comme des doublons et &lt;br&gt;seront placées dans un fichier BAD, &lt;br/&gt;tandis que les nouvelles données seront placées dans &lt;br&gt;un autre fichier &lt;br/&gt;pour traitement ultérieur." style="text;html=1;align=left;verticalAlign=middle;resizable=0;points=[];autosize=1;strokeColor=none;fillColor=none;fontFamily=Helvetica;fontSize=12;fontColor=default;rounded=0;" vertex="1" parent="e2Lqz9-67kXM0NQT878s-93">
          <mxGeometry x="50" y="30" width="360" height="130" as="geometry" />
        </mxCell>
        <mxCell id="e2Lqz9-67kXM0NQT878s-96" value="Fonction 4" style="swimlane;startSize=20;horizontal=0;html=1;rounded=0;shadow=0;strokeColor=#005700;align=center;verticalAlign=middle;fontFamily=Helvetica;fontSize=12;fontColor=#ffffff;fillColor=#008a00;" vertex="1" parent="1">
          <mxGeometry x="1710" y="-1410" width="632.5" height="170" as="geometry" />
        </mxCell>
        <mxCell id="e2Lqz9-67kXM0NQT878s-97" value="&lt;strong&gt;Fonction 4 : &lt;/strong&gt;&lt;strong&gt;Enregistrement des données&lt;/strong&gt;" style="text;html=1;align=center;verticalAlign=middle;resizable=0;points=[];autosize=1;strokeColor=none;fillColor=none;fontFamily=Helvetica;fontSize=12;fontColor=default;rounded=0;" vertex="1" parent="e2Lqz9-67kXM0NQT878s-96">
          <mxGeometry x="35" y="20" width="260" height="30" as="geometry" />
        </mxCell>
        <mxCell id="e2Lqz9-67kXM0NQT878s-98" value="Cette fonction enregistre les données séparées dans les fichiers &lt;br/&gt;correspondants. &lt;br&gt;Les données considérées comme des doublons sont &lt;br/&gt;enregistrées dans un fichier BAD,&lt;br&gt; tandis que les nouvelles données sont &lt;br/&gt;enregistrées dans un autre fichier." style="text;html=1;align=left;verticalAlign=middle;resizable=0;points=[];autosize=1;strokeColor=none;fillColor=none;fontFamily=Helvetica;fontSize=12;fontColor=default;rounded=0;" vertex="1" parent="e2Lqz9-67kXM0NQT878s-96">
          <mxGeometry x="46" y="48" width="360" height="100" as="geometry" />
        </mxCell>
      </root>
    </mxGraphModel>
  </diagram>
  <diagram id="I6f48GYqFmgBtnCIX_KN" name="Page-2">
    <mxGraphModel dx="1434" dy="766" grid="1" gridSize="10" guides="1" tooltips="1" connect="1" arrows="1" fold="1" page="1" pageScale="1" pageWidth="850" pageHeight="1100" math="0" shadow="0">
      <root>
        <mxCell id="0" />
        <mxCell id="1" parent="0" />
      </root>
    </mxGraphModel>
  </diagram>
</mxfile>
